<?xml version="1.0" standalone="no"?><!DOCTYPE svg PUBLIC "-//W3C//DTD SVG 1.1//EN" "http://www.w3.org/Graphics/SVG/1.1/DTD/svg11.dtd"><svg t="1563972178920" class="icon" viewBox="0 0 1024 1024" version="1.1" xmlns="http://www.w3.org/2000/svg" p-id="2008" xmlns:xlink="http://www.w3.org/1999/xlink" width="200" height="200"><defs><style type="text/css"></style></defs><path d="M512 352c-88.008 0-160.002 72-160.002 160 0 88.008 71.994 160 160.002 160 88.01 0 159.998-71.992 159.998-160 0-88-71.988-160-159.998-160z m381.876 117.334c-19.21-177.062-162.148-320-339.21-339.198V64h-85.332v66.134c-177.062 19.198-320 162.136-339.208 339.198H64v85.334h66.124c19.208 177.062 162.144 320 339.208 339.208V960h85.332v-66.124c177.062-19.208 320-162.146 339.21-339.208H960v-85.334h-66.124zM512 810.666c-164.274 0-298.668-134.396-298.668-298.666 0-164.272 134.394-298.666 298.668-298.666 164.27 0 298.664 134.396 298.664 298.666S676.27 810.666 512 810.666z" p-id="2009"></path></svg>